<svg id="Layer_1" enable-background="new 0 0 128 128" viewBox="0 0 128 128" xmlns="http://www.w3.org/2000/svg"><path d="m125.9 18.6-16.5-16.5c-2.8-2.8-7.2-2.8-10 0l-92.1 92.1c-.1.1-.4.4-.5.9-1.7 7.7-6.8 30.8-6.8 30.8-.1.6.1 1.2.5 1.6.6.6 1.5.5 1.6.5 0 0 23.1-5.1 30.8-6.8.1 0 .5-.2.9-.5 23-23 92.2-92.2 92.2-92.2 2.7-2.7 2.7-7.2-.1-9.9zm-92.6 97.6-2.2-6.8 80.7-80.7 4.5 4.5zm-15.1 4.7-11-11 2.7-12.1 7.7 2.5 1.3 7.6c.1.7.7 1.3 1.4 1.4l7.6 1.3 2.5 7.7zm10.4-13.8-6.6-1.1-1.1-6.5 80.8-80.8 7.7 7.7zm-10.1-10.2-6.8-2.2 83-83 4.5 4.5zm-12.2 17 7.8 7.8-10.1 2.3zm117.2-87.8-4.7 4.7-21.6-21.6 4.7-4.7c1.4-1.4 3.6-1.4 5 0l16.5 16.5c1.4 1.4 1.4 3.7.1 5.1z"/></svg>